<svg width="20" height="20" viewBox="0 0 20 20" fill="none" xmlns="http://www.w3.org/2000/svg">
<path d="M1.875 5.46875C1.875 5.20987 2.08487 5 2.34375 5H17.6563C17.9151 5 18.125 5.20987 18.125 5.46875V5.46875C18.125 5.72763 17.9151 5.9375 17.6562 5.9375H2.34375C2.08487 5.9375 1.875 5.72763 1.875 5.46875V5.46875Z" fill="current"/>
<path fill-rule="evenodd" clip-rule="evenodd" d="M16.4163 5.83337H14.9121L14.0593 17.2041C14.0398 17.465 13.8224 17.6667 13.5607 17.6667H6.43862C6.17699 17.6667 5.95959 17.465 5.94003 17.2041L5.08722 5.83337H3.58301L4.44423 17.3163C4.5225 18.3599 5.39208 19.1667 6.43862 19.1667H13.5607C14.6073 19.1667 15.4769 18.3599 15.5551 17.3163L16.4163 5.83337Z" fill="current"/>
<path d="M8.875 2.625H11.125C11.8154 2.625 12.375 3.18464 12.375 3.875V4.875H7.625V3.875C7.625 3.18464 8.18464 2.625 8.875 2.625Z" stroke="current" stroke-width="1.5"/>
<path d="M10 8V13.9375" stroke="current" stroke-width="1.5" stroke-linecap="round"/>
</svg>
