<svg width="20" height="20" viewBox="0 0 20 20" fill="none" xmlns="http://www.w3.org/2000/svg">
<g id="repo-forked-24">
<path id="Icon" fill-rule="evenodd" clip-rule="evenodd" d="M7.29158 16.0417C7.29158 17.5374 8.50415 18.75 9.99992 18.75C11.4957 18.75 12.7083 17.5374 12.7083 16.0417C12.7083 14.761 11.8194 13.688 10.6249 13.4058V10.4167H12.7083C14.4341 10.4167 15.8333 9.01756 15.8333 7.29167V6.5942C17.0277 6.31204 17.9166 5.23899 17.9166 3.95833C17.9166 2.46256 16.704 1.25 15.2083 1.25C13.7125 1.25 12.4999 2.46256 12.4999 3.95833C12.4999 5.23899 13.3888 6.31204 14.5833 6.5942V7.29167C14.5833 8.3272 13.7438 9.16667 12.7083 9.16667H7.29158C6.25605 9.16667 5.41659 8.3272 5.41659 7.29167V6.5942C6.61104 6.31204 7.49992 5.23899 7.49992 3.95833C7.49992 2.46256 6.28736 1.25 4.79159 1.25C3.29581 1.25 2.08325 2.46256 2.08325 3.95833C2.08325 5.23899 2.97213 6.31204 4.16659 6.5942V7.29167C4.16659 9.01756 5.5657 10.4167 7.29158 10.4167H9.37492V13.4058C8.18046 13.688 7.29158 14.761 7.29158 16.0417ZM9.99992 17.5C9.1945 17.5 8.54158 16.8471 8.54158 16.0417C8.54158 15.2363 9.1945 14.5833 9.99992 14.5833C10.8053 14.5833 11.4583 15.2363 11.4583 16.0417C11.4583 16.8471 10.8053 17.5 9.99992 17.5ZM4.79159 5.41667C3.98617 5.41667 3.33325 4.76375 3.33325 3.95833C3.33325 3.15292 3.98617 2.5 4.79159 2.5C5.597 2.5 6.24992 3.15292 6.24992 3.95833C6.24992 4.76375 5.597 5.41667 4.79159 5.41667ZM13.7499 3.95833C13.7499 4.76375 14.4028 5.41667 15.2083 5.41667C16.0137 5.41667 16.6666 4.76375 16.6666 3.95833C16.6666 3.15292 16.0137 2.5 15.2083 2.5C14.4028 2.5 13.7499 3.15292 13.7499 3.95833Z" fill="current"/>
</g>
</svg>
