<svg width="80" height="26" viewBox="0 0 80 26" fill="none" xmlns="http://www.w3.org/2000/svg">
<path d="M46.0822 14.1863V12.5613H51.8685V21.8075C50.5863 22.4087 48.663 22.8475 45.9671 22.8475C40.1808 22.8475 38.3562 18.4763 38.3562 13.0488C38.3562 7.62125 40.2137 3.25 45.9671 3.25C48.6301 3.25 50.3069 3.78625 51.3589 4.3225V6.02875C49.3534 5.21625 48.0712 4.8425 45.9671 4.8425C41.7425 4.8425 40.2466 8.43375 40.2466 13.065C40.2466 17.6963 41.7425 21.2713 45.9507 21.2713C47.4137 21.2713 49.2055 21.1575 50.1096 20.7188V14.1863H46.0822ZM64.1315 15.3075H64.1808C67.8301 15.6325 68.7014 16.8513 68.7014 18.9313C68.7014 20.8975 67.4521 22.8475 63.5397 22.8475C62.3069 22.8475 60.5315 22.5387 59.7096 22.2137V20.6862C60.4822 20.9625 61.7151 21.2713 63.5397 21.2713C66.2027 21.2713 66.926 20.15 66.926 18.9637C66.926 17.81 66.5644 16.9975 64.0164 16.7863C60.3014 16.4613 59.5288 15.1613 59.5288 13.4063C59.5288 11.6025 60.7123 9.6525 64.3288 9.6525C65.5288 9.6525 66.8932 9.79875 68.0274 10.2863V11.8138C67.0247 11.4887 66.0219 11.2288 64.2959 11.2288C61.748 11.2288 61.2055 12.155 61.2055 13.4063C61.2055 14.5275 61.6658 15.0963 64.1315 15.3075ZM78.2356 9.89625V11.2775H74.2575V19.1913C74.2575 20.735 75.1288 21.3688 76.7233 21.3688C77.0521 21.3688 77.4137 21.3688 77.726 21.32V22.7663C77.4466 22.815 76.9041 22.8475 76.5918 22.8475C74.4384 22.8475 72.4822 21.8725 72.4822 19.3863V11.2613H69.9178V10.4813L72.4822 9.76625V6.3375L74.2575 5.83375V9.89625H78.2356ZM56.5863 9.8475V20.2638C56.5863 21.1413 56.8986 21.4012 57.6877 21.4012V22.8475C55.8137 22.8475 54.8603 22.0838 54.8603 20.0525V9.8475H56.5863ZM56.9973 6.06125C56.9973 6.77625 56.4384 7.32875 55.7151 7.32875C55.5468 7.331 55.3799 7.29962 55.2242 7.23651C55.0685 7.1734 54.9273 7.07986 54.8091 6.96149C54.6909 6.84312 54.5981 6.70236 54.5363 6.54767C54.4745 6.39297 54.4449 6.22752 54.4493 6.06125C54.4493 5.34625 54.9753 4.79375 55.7151 4.79375C56.4548 4.79375 56.9973 5.34625 56.9973 6.06125Z" fill="white"/>
<path d="M30.4658 18.7764H30.4329C30.4471 18.7764 30.457 18.7915 30.4712 18.7948L30.4822 18.7926L30.4658 18.7764ZM30.4712 18.7948C30.3178 18.7959 29.9342 18.8739 29.5277 18.8739C28.2455 18.8739 27.8016 18.2932 27.8016 17.537V12.4974H30.4153C30.5633 12.4974 30.6784 12.3674 30.6784 12.1908V9.4532C30.6784 9.30912 30.5469 9.1802 30.4153 9.1802H27.8027V5.78178C27.8027 5.65287 27.7205 5.5727 27.5726 5.5727H24.0219C23.8729 5.5727 23.7918 5.65287 23.7918 5.78178V9.2777C23.7918 9.2777 21.9989 9.71212 21.8838 9.72837C21.822 9.74316 21.7671 9.77839 21.7282 9.82823C21.6893 9.87807 21.6689 9.93954 21.6701 10.0024V12.1919C21.6701 12.3695 21.8016 12.4974 21.9496 12.4974H23.7742V17.7797C23.7742 21.709 26.5688 22.1109 28.4756 22.1109C29.3479 22.1109 30.4 21.8379 30.5644 21.7566C30.663 21.7241 30.7123 21.6114 30.7123 21.4988V19.083C30.7136 19.0147 30.6901 18.9482 30.6461 18.8955C30.6021 18.8428 30.5404 18.8075 30.4723 18.7959L30.4712 18.7948ZM20.1227 9.16395H16.6214C16.4734 9.16395 16.3419 9.30912 16.3419 9.4857V21.3049C16.3419 21.6266 16.5556 21.7393 16.8351 21.7393H19.9912C20.32 21.7393 20.4022 21.5941 20.4022 21.3049V9.43695C20.3994 9.36486 20.369 9.29651 20.3171 9.2458C20.2652 9.19509 20.1957 9.16583 20.1227 9.16395ZM18.3967 3.7202C17.131 3.7202 16.1282 4.70278 16.1282 5.94212C16.1282 7.18253 17.131 8.16403 18.3967 8.16403C18.6912 8.16404 18.9828 8.10652 19.2548 7.99478C19.5267 7.88304 19.7737 7.71928 19.9814 7.51291C20.1892 7.30655 20.3536 7.06164 20.4653 6.79226C20.577 6.52288 20.6338 6.23433 20.6323 5.9432C20.6341 5.65189 20.5775 5.36311 20.4659 5.09348C20.3544 4.82385 20.19 4.57868 19.9822 4.37208C19.7744 4.16549 19.5274 4.00154 19.2553 3.88966C18.9832 3.77779 18.6914 3.7202 18.3967 3.7202ZM14.4844 11.2396V20.4826C14.4844 20.5476 14.4679 20.6592 14.3858 20.6917C14.3858 20.6917 12.331 22.125 8.94356 22.125C4.85042 22.126 0 20.8694 0 12.5927C0 4.31603 4.2411 2.61087 8.38466 2.62603C11.9682 2.62603 13.4148 3.4147 13.6449 3.55987C13.7107 3.64112 13.7436 3.70503 13.7436 3.7852L13.0532 6.6517C13.0532 6.79687 12.9063 6.97345 12.7244 6.92578C12.1326 6.74812 11.2449 6.39495 9.15726 6.39495C6.74082 6.39495 4.14356 7.06987 4.14356 12.3999C4.14356 17.7299 6.60932 18.3582 8.38466 18.3582C9.89698 18.3582 10.4395 18.1805 10.4395 18.1805V14.4777H8.02301C7.84219 14.4777 7.71068 14.3477 7.71068 14.2036V11.2407C7.71068 11.0955 7.84219 10.9677 8.02301 10.9677H14.171C14.3529 10.9677 14.4844 11.0945 14.4844 11.2396Z" fill="white"/>
</svg>
