<svg width="20" height="20" viewBox="0 0 20 20" fill="none" xmlns="http://www.w3.org/2000/svg">
<g id="note-24">
<g id="Icon">
<path fill-rule="evenodd" clip-rule="evenodd" d="M0 3.95833C0 3.15292 0.652918 2.5 1.45833 2.5H18.5417C19.3471 2.5 20 3.15292 20 3.95833V16.0417C20 16.8471 19.3471 17.5 18.5417 17.5H1.45833C0.652918 17.5 0 16.8471 0 16.0417V3.95833ZM1.45833 3.75C1.34327 3.75 1.25 3.84327 1.25 3.95833V16.0417C1.25 16.1567 1.34327 16.25 1.45833 16.25H18.5417C18.6567 16.25 18.75 16.1567 18.75 16.0417V3.95833C18.75 3.84327 18.6567 3.75 18.5417 3.75H1.45833Z" fill="current"/>
<path fill-rule="evenodd" clip-rule="evenodd" d="M4.16667 7.29167C4.16667 6.94649 4.44649 6.66667 4.79167 6.66667H14.375C14.7202 6.66667 15 6.94649 15 7.29167C15 7.63684 14.7202 7.91667 14.375 7.91667H4.79167C4.44649 7.91667 4.16667 7.63684 4.16667 7.29167Z" fill="current"/>
<path fill-rule="evenodd" clip-rule="evenodd" d="M4.16667 10.625C4.16667 10.2798 4.44649 10 4.79167 10H9.375C9.72018 10 10 10.2798 10 10.625C10 10.9702 9.72018 11.25 9.375 11.25H4.79167C4.44649 11.25 4.16667 10.9702 4.16667 10.625Z" fill="current"/>
</g>
</g>
</svg>
