<svg width="20" height="20" viewBox="0 0 20 20" fill="none" xmlns="http://www.w3.org/2000/svg">
<g id="list-unordered-24">
<path id="Icon" fill-rule="evenodd" clip-rule="evenodd" d="M3.33333 5.83335C3.79357 5.83335 4.16667 5.46025 4.16667 5.00002C4.16667 4.53979 3.79357 4.16669 3.33333 4.16669C2.8731 4.16669 2.5 4.53979 2.5 5.00002C2.5 5.46025 2.8731 5.83335 3.33333 5.83335ZM7.29167 4.58335C6.94649 4.58335 6.66667 4.86318 6.66667 5.20835C6.66667 5.55353 6.94649 5.83335 7.29167 5.83335H16.875C17.2202 5.83335 17.5 5.55353 17.5 5.20835C17.5 4.86318 17.2202 4.58335 16.875 4.58335H7.29167ZM7.29167 9.58335C6.94649 9.58335 6.66667 9.86319 6.66667 10.2084C6.66667 10.5535 6.94649 10.8334 7.29167 10.8334H16.875C17.2202 10.8334 17.5 10.5535 17.5 10.2084C17.5 9.86319 17.2202 9.58335 16.875 9.58335H7.29167ZM7.29167 14.5834C6.94649 14.5834 6.66667 14.8632 6.66667 15.2084C6.66667 15.5535 6.94649 15.8334 7.29167 15.8334H16.875C17.2202 15.8334 17.5 15.5535 17.5 15.2084C17.5 14.8632 17.2202 14.5834 16.875 14.5834H7.29167ZM4.16667 10C4.16667 10.4603 3.79357 10.8334 3.33333 10.8334C2.8731 10.8334 2.5 10.4603 2.5 10C2.5 9.53977 2.8731 9.16669 3.33333 9.16669C3.79357 9.16669 4.16667 9.53977 4.16667 10ZM3.33333 15.8334C3.79357 15.8334 4.16667 15.4603 4.16667 15C4.16667 14.5398 3.79357 14.1667 3.33333 14.1667C2.8731 14.1667 2.5 14.5398 2.5 15C2.5 15.4603 2.8731 15.8334 3.33333 15.8334Z" fill="current"/>
</g>
</svg>
