<svg width="20" height="20" viewBox="0 0 20 20" fill="none" xmlns="http://www.w3.org/2000/svg">
<g id="star-24">
<path id="Icon" fill-rule="evenodd" clip-rule="evenodd" d="M 10 0.2083 C 10.2379 0.2083 10.4552 0.3434 10.5605 0.5567 L 13.1091 5.7208 L 18.8079 6.5488 C 19.0433 6.5831 19.2389 6.748 19.3124 6.9742 C 19.386 7.2005 19.3247 7.4489 19.1543 7.6149 L 15.0306 11.6345 L 16.0041 17.3103 C 16.0443 17.5448 15.9479 17.7818 15.7554 17.9216 C 15.5629 18.0615 15.3078 18.0799 15.0972 17.9692 L 10 15.2895 L 4.9028 17.9692 C 4.6922 18.0799 4.4371 18.0615 4.2446 17.9216 C 4.0522 17.7818 3.9558 17.5448 3.996 17.3103 L 4.9695 11.6345 L 0.8457 7.6149 C 0.6754 7.4489 0.6141 7.2005 0.6876 6.9742 C 0.7611 6.748 0.9567 6.5831 1.1921 6.5488 L 6.891 5.7208 L 9.4396 0.5567 C 9.5449 0.3434 9.7621 0.2083 10 0.2083 Z Z" fill="current"/>
</g>
</svg>
